<svg xmlns="http://www.w3.org/2000/svg" viewBox="0 0 900 675"><defs><linearGradient id="g" x1="0" y1="0" x2="1" y2="1"><stop stop-color="#f4eadc"/><stop offset=".55" stop-color="#d8c3a3"/><stop offset="1" stop-color="#171311"/></linearGradient><pattern id="p" width="46" height="46" patternUnits="userSpaceOnUse"><path d="M12 42C28 20 24 12 40 4" fill="none" stroke="#8b6b42" stroke-opacity=".22" stroke-width="2"/><circle cx="28" cy="20" r="2" fill="#8b6b42" fill-opacity=".16"/></pattern><filter id="s"><feDropShadow dx="0" dy="18" stdDeviation="22" flood-opacity=".2"/></filter></defs><rect width="900" height="675" fill="url(#g)"/><rect x="0" y="0" width="540" height="675" fill="url(#p)" opacity=".8"/><rect x="95" y="105" width="710" height="465" rx="34" fill="#fff8ed" opacity=".35" filter="url(#s)"/><rect x="132" y="138" width="352" height="302" rx="24" fill="#efe1cf"/><rect x="132" y="138" width="352" height="302" fill="url(#p)" opacity=".65"/><rect x="510" y="138" width="245" height="302" rx="24" fill="#211915" opacity=".88"/><rect x="164" y="450" width="560" height="74" rx="34" fill="#b9a487"/><rect x="205" y="392" width="430" height="86" rx="38" fill="#eadcc8"/><circle cx="696" cy="230" r="42" fill="#b9945c" opacity=".72"/><path d="M592 410c54-42 95-61 144-78" stroke="#b9945c" stroke-width="9" stroke-linecap="round" opacity=".5"/><text x="100" y="620" font-family="Georgia,serif" font-size="30" fill="#fffaf3" opacity=".9">Premium woonkamer · sfeerimpressie</text></svg>