<svg xmlns="http://www.w3.org/2000/svg" viewBox="0 0 900 675"><defs><linearGradient id="g" x1="0" y1="0" x2="1" y2="1"><stop stop-color="#fbf0df"/><stop offset=".55" stop-color="#bfa37c"/><stop offset="1" stop-color="#15110f"/></linearGradient><pattern id="wall" width="60" height="60" patternUnits="userSpaceOnUse"><path d="M8 54C28 34 32 20 52 8" fill="none" stroke="#6b5134" stroke-opacity=".18" stroke-width="2"/></pattern></defs><rect width="900" height="675" fill="url(#g)"/><rect width="900" height="370" fill="url(#wall)" opacity=".9"/><rect x="90" y="112" width="235" height="300" rx="24" fill="#171311" opacity=".88"/><rect x="370" y="112" width="430" height="300" rx="24" fill="#fff7eb" opacity=".42"/><rect x="185" y="430" width="530" height="76" rx="38" fill="#1b1612" opacity=".86"/><ellipse cx="450" cy="458" rx="282" ry="55" fill="#211915"/><rect x="228" y="374" width="82" height="118" rx="32" fill="#efe1cc"/><rect x="344" y="362" width="82" height="130" rx="32" fill="#efe1cc"/><rect x="490" y="362" width="82" height="130" rx="32" fill="#efe1cc"/><rect x="606" y="374" width="82" height="118" rx="32" fill="#efe1cc"/><path d="M450 120v150" stroke="#b9945c" stroke-width="7" stroke-linecap="round"/><circle cx="450" cy="282" r="30" fill="#b9945c" opacity=".75"/><text x="92" y="620" font-family="Georgia,serif" font-size="30" fill="#fffaf3" opacity=".9">Accentwand leefruimte · sfeerimpressie</text></svg>